<?xml version="1.0" standalone="no"?>
<!DOCTYPE svg PUBLIC "-//W3C//DTD SVG 20010904//EN"
 "http://www.w3.org/TR/2001/REC-SVG-20010904/DTD/svg10.dtd">
<svg version="1.0" xmlns="http://www.w3.org/2000/svg"
 width="2100.000000pt" height="2100.000000pt" viewBox="0 0 2100.000000 2100.000000"
 preserveAspectRatio="xMidYMid meet">
<metadata>
Created by potrace 1.14, written by Peter Selinger 2001-2017
</metadata>
<g transform="translate(0.000000,2100.000000) scale(0.100000,-0.100000)"
fill="#000000" stroke="none">
<path d="M10207 20583 c-1 -1 -72 -4 -157 -8 -85 -4 -173 -8 -195 -10 -22 -1
-85 -6 -140 -9 -55 -4 -116 -9 -135 -11 -35 -4 -99 -11 -195 -21 -27 -3 -67
-7 -87 -9 -35 -5 -58 -7 -163 -21 -22 -3 -65 -9 -95 -14 -30 -5 -75 -12 -100
-15 -61 -8 -100 -14 -130 -20 -51 -10 -75 -15 -115 -21 -22 -3 -94 -17 -160
-30 -66 -14 -133 -27 -150 -30 -16 -3 -77 -16 -135 -30 -58 -14 -112 -27 -120
-29 -116 -27 -175 -43 -345 -90 -279 -78 -684 -209 -800 -260 -16 -7 -41 -16
-55 -20 -36 -11 -369 -146 -480 -195 -656 -289 -1344 -685 -1883 -1083 -50
-38 -103 -76 -115 -85 -104 -74 -457 -360 -586 -475 -224 -198 -259 -232 -500
-472 -232 -231 -245 -245 -463 -491 -169 -191 -383 -458 -565 -709 -169 -231
-446 -652 -530 -805 -13 -24 -28 -50 -33 -59 -6 -9 -37 -63 -70 -121 -227
-402 -436 -844 -606 -1285 -39 -99 -75 -193 -82 -210 -6 -16 -13 -34 -14 -40
-1 -5 -27 -82 -57 -170 -30 -88 -73 -221 -95 -295 -23 -74 -45 -148 -50 -165
-15 -45 -96 -357 -121 -465 -24 -106 -28 -122 -35 -165 -3 -16 -10 -43 -15
-60 -5 -16 -12 -50 -16 -75 -4 -25 -8 -47 -9 -50 -1 -3 -5 -25 -9 -50 -5 -25
-10 -52 -11 -61 -2 -9 -6 -33 -9 -54 -4 -20 -8 -40 -10 -44 -2 -3 -7 -31 -11
-61 -4 -30 -8 -57 -10 -60 -2 -3 -6 -30 -9 -60 -3 -30 -8 -66 -11 -80 -7 -34
-34 -234 -40 -290 -9 -86 -16 -155 -20 -190 -12 -108 -15 -143 -21 -225 -3
-49 -7 -112 -9 -140 -24 -308 -23 -1002 0 -1295 2 -25 7 -85 10 -135 3 -49 8
-106 10 -125 2 -19 7 -69 10 -110 4 -41 8 -86 10 -100 2 -14 7 -50 10 -80 3
-30 8 -66 10 -80 2 -14 7 -50 10 -80 4 -30 9 -63 11 -72 1 -9 10 -67 19 -128
9 -61 18 -119 19 -128 2 -9 7 -37 12 -62 4 -25 8 -47 9 -50 1 -3 5 -25 9 -50
5 -25 10 -54 12 -65 2 -11 7 -33 10 -49 34 -189 156 -688 215 -881 46 -152
153 -478 194 -590 20 -55 40 -111 44 -125 29 -88 191 -472 294 -695 39 -85
230 -464 281 -559 86 -157 254 -443 321 -546 174 -268 323 -490 367 -545 5 -5
38 -50 75 -100 107 -145 267 -351 283 -365 3 -3 48 -57 101 -120 255 -305 602
-669 874 -917 55 -50 118 -108 140 -128 33 -31 283 -241 425 -359 49 -40 403
-305 475 -355 61 -43 368 -247 460 -306 54 -34 351 -210 450 -266 119 -66 223
-121 415 -215 107 -53 203 -100 213 -105 114 -59 606 -264 817 -339 123 -44
479 -162 620 -204 205 -62 771 -197 970 -231 19 -3 85 -15 145 -25 111 -20
131 -23 218 -35 27 -4 57 -8 66 -10 10 -2 42 -6 72 -10 30 -3 65 -8 79 -10 39
-6 109 -14 175 -20 33 -3 76 -8 95 -11 38 -5 86 -9 225 -19 50 -3 110 -8 135
-10 291 -24 1009 -24 1300 0 25 2 83 6 130 10 47 3 103 8 125 10 22 2 74 7
115 10 41 3 89 9 105 12 17 2 44 6 60 8 32 2 167 18 175 20 3 1 34 5 70 10 36
5 67 9 70 10 3 1 30 5 60 9 30 5 64 10 75 12 11 2 49 9 85 14 36 6 85 15 110
20 25 5 56 12 70 14 184 30 663 145 930 223 312 91 664 213 935 324 17 7 32
13 35 13 8 2 161 66 215 91 279 126 365 166 525 248 284 145 586 313 745 415
22 14 56 35 75 47 186 117 622 416 695 477 5 5 57 44 114 88 89 69 354 284
387 315 6 5 42 37 80 70 243 212 607 568 799 780 54 61 102 112 105 115 9 8
243 283 275 323 17 21 45 57 64 80 310 384 655 895 922 1367 180 320 356 682
534 1105 26 60 156 400 162 420 1 6 36 109 77 230 64 189 187 610 201 683 2
13 8 38 14 55 10 31 95 412 106 472 2 17 7 41 10 55 3 14 8 40 11 59 3 18 8
43 10 55 11 52 67 414 79 514 12 101 14 120 20 170 3 28 7 73 10 100 10 89 16
163 30 367 28 392 23 1066 -10 1430 -3 33 -7 85 -10 115 -10 114 -25 266 -29
290 -3 14 -7 49 -10 79 -4 29 -11 85 -16 125 -6 39 -13 89 -16 111 -5 42 -50
305 -58 341 -2 12 -7 37 -10 55 -3 19 -15 79 -26 134 -12 55 -24 111 -26 125
-3 14 -12 54 -20 90 -9 36 -17 72 -19 80 -5 24 -73 286 -100 390 -64 238 -245
781 -320 955 -7 17 -32 77 -55 135 -23 58 -49 121 -57 140 -8 19 -19 44 -23
55 -5 11 -23 52 -40 90 -18 39 -50 111 -73 160 -44 98 -207 421 -277 550 -108
198 -339 588 -352 593 -4 2 -8 8 -8 12 0 8 -149 235 -226 345 -72 102 -212
295 -233 321 -14 17 -33 41 -41 54 -8 12 -20 28 -25 34 -6 6 -33 40 -60 74
-258 329 -471 567 -800 897 -293 293 -406 395 -840 754 -132 109 -527 398
-695 507 -41 27 -76 52 -78 57 -2 4 -8 7 -12 7 -8 0 -169 101 -242 151 -15 11
-29 19 -32 19 -2 0 -51 28 -108 62 -175 104 -344 196 -563 307 -180 92 -275
137 -530 252 -22 10 -85 36 -140 59 -55 22 -109 45 -120 50 -167 74 -647 240
-925 319 -239 69 -569 154 -680 175 -14 2 -70 14 -125 26 -55 11 -115 23 -134
26 -18 3 -43 8 -55 10 -34 7 -118 23 -156 29 -19 3 -60 10 -90 15 -30 5 -73
12 -95 14 -22 3 -58 8 -80 11 -37 5 -83 11 -145 20 -14 2 -52 7 -85 10 -33 4
-70 9 -83 10 -13 2 -55 6 -95 10 -40 3 -88 8 -107 10 -19 2 -78 7 -130 11 -52
3 -108 8 -124 9 -94 12 -940 28 -949 18z"/>
</g>
</svg>
